<?xml version="1.0" encoding="UTF-8"?>
<svg version="1.1" xmlns="http://www.w3.org/2000/svg" width="100%" height="100%">
	<path d="m23.99 1.5957a22.413 22.413 0 0 0 -13.459 4.5176l4.8535 15.053 12.75-19.17a22.413 22.413 0 0 0 -4.1445 -0.40039zm5.9375 0.82617l-8.5664 12.912 22.352-1.9336a22.413 22.413 0 0 0 -13.785 -10.979zm-20.832 4.877a22.413 22.413 0 0 0 -7.5137 16.646l14.635 5.5312-7.1211-22.178zm35.418 7.7676l-14.865 1.3027 15.141 15.945a22.413 22.413 0 0 0 1.6152 -8.3047 22.413 22.413 0 0 0 -1.8906 -8.9434zm-10.51 8.4297l-3.0273 21.781a22.413 22.413 0 0 0 13.039 -11.262l-10.012-10.52zm-32.342 2.3281a22.413 22.413 0 0 0 8.6191 15.881l12.953-7.6992-21.572-8.1816zm29.488 5.5195l-19.332 11.459a22.413 22.413 0 0 0 12.172 3.6191 22.413 22.413 0 0 0 5.1699 -0.63086l1.9902-14.447z" fill="#ffffff" style="paint-order:normal"/>
</svg>
