<?xml version="1.0" encoding="UTF-8"?><svg width="16" height="16" version="1.1" viewBox="0 0 12.7 12.7" xmlns="http://www.w3.org/2000/svg"><path transform="scale(0.3)" d="m42.168 1.0215c-0.41304 0-0.59233 0.11885-0.98047 0.27344-0.38815 0.15458-0.88147 0.37174-1.4727 0.64844-1.1824 0.5534-2.7552 1.3336-4.5898 2.2832-3.6693 1.8991-8.3819 4.4511-13.037 7.0703-4.6552 2.6192-9.2534 5.3076-12.699 7.4824-1.7229 1.0874-3.1533 2.0465-4.1758 2.8164-0.51124 0.38476-0.91483 0.72187-1.2188 1.0234-0.15196 0.1508-0.28237 0.28892-0.38867 0.44531-0.10631 0.1561-0.21289 0.32547-0.21289 0.625 0 0.3001 0.10659 0.46883 0.21289 0.625 0.1063 0.1561 0.23671 0.29627 0.38867 0.44727 0.30392 0.30161 0.70751 0.63658 1.2188 1.0215 1.0225 0.76985 2.4529 1.7309 4.1758 2.8184 3.4458 2.1749 8.044 4.8632 12.699 7.4824 4.6552 2.6192 9.3678 5.1693 13.037 7.0684 1.8346 0.94957 3.4075 1.7376 4.5898 2.291 0.59118 0.27666 1.0845 0.48834 1.4727 0.64258 0.38814 0.15458 0.56743 0.27344 0.98047 0.27344l-0.01172-3.5508c0.16785 0-2.1335-0.0389-2.4434-0.16211-0.30992-0.12321-0.73683-0.30498-1.2539-0.54688-1.0342-0.48401-2.4411-1.183-4.0762-2.0293-0.41088-0.21266-0.94027-0.50209-1.3789-0.73242 1.3899-1.1354 2.386-3.1156 3.1016-5.5117 0.91091-3.0503 1.3522-6.8148 1.3496-10.541-0.00263-3.7262-0.44355-7.4053-1.3496-10.291-0.45303-1.4428-1.0202-2.6875-1.7285-3.6465-0.39771-0.53842-0.85298-0.97715-1.3535-1.3086 0.43222-0.22676 0.95418-0.51294 1.3594-0.72266 1.635-0.84627 3.042-1.5453 4.0762-2.0293 0.51708-0.24189 0.94399-0.43151 1.2539-0.55469 0.30992-0.12321 2.6112-1.2246 2.4434-1.2246zm-11.256 8.1387 0.45312 0.10742c0.53242 0.1217 1.0767 0.55036 1.5879 1.3125 0.51118 0.7621 0.97131 1.8336 1.3496 3.1094 0.75659 2.5515 1.1881 5.9167 1.2266 9.3301 0.03846 3.4134-0.31824 6.8816-1.0938 9.6406-0.77551 2.759-1.9848 4.7533-3.4609 5.3887l-0.2207 0.09375c-1.9261-1.0312-3.9265-2.1236-6.0391-3.2988 1.6541-1.3762 2.799-5.8935 2.7988-11.043-0.0017-5.3478-1.2362-9.981-2.9746-11.164 2.2332-1.2428 4.348-2.395 6.373-3.4766zm-9.3496 5.1465c-1.0536 2.1265-1.686 5.6847-1.6875 9.4941 0.0017 3.6261 0.57543 7.0358 1.5469 9.1934-3.6867-2.0912-7.2793-4.1886-10.004-5.9082-1.5284-0.96469-2.7928-1.8138-3.6602-2.4668-0.43366-0.32655-0.77013-0.60766-0.97461-0.81055-0.052732-0.05216-0.069492-0.07712-0.10352-0.11719 0.034167-0.04044 0.050288-0.06623 0.10352-0.11914 0.20448-0.20296 0.54095-0.48602 0.97461-0.8125 0.86731-0.65303 2.1317-1.5002 3.6602-2.4648 2.7599-1.742 6.4069-3.8701 10.145-5.9883z" color="#000000" color-rendering="auto" dominant-baseline="auto" fill="#fff" fill-rule="evenodd" image-rendering="auto" shape-rendering="auto" solid-color="#000000" style="font-feature-settings:normal;font-variant-alternates:normal;font-variant-caps:normal;font-variant-ligatures:normal;font-variant-numeric:normal;font-variant-position:normal;isolation:auto;mix-blend-mode:normal;shape-padding:0;text-decoration-color:#000000;text-decoration-line:none;text-decoration-style:solid;text-indent:0;text-orientation:mixed;text-transform:none;white-space:normal"/></svg>
