<?xml version="1.0" encoding="UTF-8"?>
<svg width="16" height="16" version="1.1" xmlns="http://www.w3.org/2000/svg"><path transform="scale(0.33)" d="m25.172 5.2188c-10.697 0.011339-20.293 6.578-24.182 16.543 3.3251-7.1543 10.494-11.735 18.383-11.746 6.533 0.007559 12.661 3.1648 16.467 8.4746l8.9199-4.334c-4.9304-5.6708-12.073-8.9301-19.588-8.9375zm21.195 10.709l-23.268 11.244 0.019532 0.023437c-1.4749 0.76816-2.4941 2.2933-2.4941 4.0703 9e-6 2.5428 2.0627 4.6055 4.6055 4.6055 1.3981 0 2.6374-0.63675 3.4824-1.6211l0.013671 0.017578 17.641-18.34z" color="#000000" color-rendering="auto" dominant-baseline="auto" fill="#fff" image-rendering="auto" shape-rendering="auto" solid-color="#000000" style="font-feature-settings:normal;font-variant-alternates:normal;font-variant-caps:normal;font-variant-ligatures:normal;font-variant-numeric:normal;font-variant-position:normal;isolation:auto;mix-blend-mode:normal;paint-order:normal;shape-padding:0;text-decoration-color:#000000;text-decoration-line:none;text-decoration-style:solid;text-indent:0;text-orientation:mixed;text-transform:none;white-space:normal"/></svg>
